<?xml version="1.0" encoding="utf-8"?>
<!-- Generator: Adobe Illustrator 21.0.0, SVG Export Plug-In . SVG Version: 6.00 Build 0)  -->
<svg version="1.1" id="Layer_1" xmlns="http://www.w3.org/2000/svg" xmlns:xlink="http://www.w3.org/1999/xlink" x="0px" y="0px"
	 viewBox="0 0 336.7 320" style="enable-background:new 0 0 336.7 320;" xml:space="preserve">
<style type="text/css">
	.st0{fill:#A05C94;}
	.st1{opacity:0.7;fill:#73467A;}
	.st2{fill:#73467A;}
	.st3{fill:#FFFFFF;}
	.st4{fill-rule:evenodd;clip-rule:evenodd;fill:#A05C94;}
	.st5{fill:#E6E6E6;}
	.st6{display:none;}
	.st7{display:inline;}
	.st8{fill:#9B5C8F;}
	.st9{display:inline;fill:#FFFFFF;}
</style>
<rect class="st0" width="337.7" height="321"/>
<polygon class="st1" points="28.7,206 28.7,18.8 -0.3,158.8 -0.3,321 28.7,320 28.7,225.9 284.9,227.5 308.7,206 "/>
<polygon class="st2" points="28.7,219 28.7,215.2 -0.3,304.4 -0.3,321 28.7,227 228.4,227 236.5,219 "/>
<polygon class="st1" points="124.7,298 124.7,227.5 28.7,297.6 6.1,321 8.6,321 8.7,321 190.3,321.2 212.8,298 "/>
<polygon class="st1" points="0.2,321 94.9,321 117.4,298 28.7,298 28.7,227.7 "/>
<rect x="28.7" y="18.7" class="st3" width="280" height="162.5"/>
<rect x="169.9" y="183.3" class="st3" width="138.8" height="22.5"/>
<rect x="28.7" y="183.3" class="st3" width="138.8" height="22.5"/>
<path class="st4" d="M100.8,202.6l0-6.5l6.4,0c0.3,0,0.5-0.2,0.5-0.5l0-1.8c0-0.1-0.1-0.2-0.1-0.3c-0.1-0.1-0.2-0.1-0.3-0.1l-6.4,0
	l0-6.4c0-0.1-0.1-0.2-0.1-0.3c-0.1-0.1-0.2-0.1-0.3-0.1l-1.8,0c-0.3,0-0.5,0.2-0.5,0.5l0,6.4l-6.5,0c-0.1,0-0.3,0-0.3,0.1
	c-0.1,0.1-0.1,0.2-0.1,0.3l0,1.8c0,0.1,0.1,0.3,0.1,0.3c0.1,0.1,0.2,0.1,0.3,0.1l6.4,0l0,6.4c0,0.1,0.1,0.3,0.1,0.3
	c0.1,0.1,0.2,0.1,0.3,0.1l1.8,0c0.1,0,0.3,0,0.3-0.1C100.8,202.9,100.8,202.7,100.8,202.6z"/>
<polygon class="st4" points="244.2,194.6 236.2,202.5 236.2,186.6 "/>
<g>
	<rect x="28.7" y="215.2" class="st3" width="207.9" height="3.7"/>
</g>
<polygon class="st1" points="285.9,321 308.5,297.5 219.9,297.5 219.9,227.5 124.1,297.7 101.7,321 "/>
<polygon class="st5" points="120.7,90.3 28.6,142 28.7,181.2 158,181.2 174.7,156.9 144,153.3 "/>
<g>
	<rect x="28.7" y="227.5" class="st3" width="88.8" height="70"/>
	<rect x="124.3" y="227.5" class="st3" width="88.8" height="70"/>
	<rect x="219.9" y="227.5" class="st3" width="88.8" height="70"/>
</g>
<g class="st6">
	<g class="st7">
		<path class="st8" d="M70.8,274.8h-20c-3.4,0-6.1-2.7-6.1-6.1v-16.3c0-1.6,0.6-3.1,1.8-4.3c1.2-1.2,2.7-1.8,4.3-1.8h42.8
			c3.4,0,6.1,2.7,6.1,6.1v16.3c0,3.4-2.7,6.1-6.1,6.1H80l2.7,6.7L70.8,274.8z"/>
	</g>
	<path class="st9" d="M48.5,251.9c0.3-0.4,0.8-0.6,1.4-0.7c1.1-0.1,1.7,0.4,1.9,1.5c0.7,4.5,1.4,8.3,2.2,11.4l4.7-9
		c0.4-0.8,1-1.2,1.6-1.3c0.9-0.1,1.5,0.5,1.8,1.8c0.5,2.9,1.2,5.3,2,7.4c0.6-5.5,1.5-9.4,2.8-11.8c0.3-0.6,0.8-0.9,1.4-0.9
		c0.5,0,0.9,0.1,1.4,0.4c0.4,0.3,0.6,0.7,0.7,1.2c0,0.4,0,0.7-0.2,1c-0.8,1.5-1.5,4.2-2.1,7.8c-0.5,3.5-0.7,6.2-0.6,8.2
		c0,0.5,0,1-0.3,1.4c-0.3,0.5-0.6,0.7-1.1,0.8c-0.6,0-1.1-0.2-1.7-0.8c-2-2-3.6-5.1-4.8-9.2c-1.4,2.8-2.4,4.8-3.1,6.2
		c-1.3,2.4-2.3,3.7-3.2,3.7c-0.6,0-1.1-0.5-1.5-1.5c-1.1-2.8-2.3-8.3-3.5-16.3C48.1,252.8,48.2,252.3,48.5,251.9z"/>
	<path class="st9" d="M94.7,255.3c-0.8-1.4-1.9-2.2-3.4-2.5c-0.4-0.1-0.8-0.1-1.2-0.1c-2.1,0-3.7,1.1-5.1,3.2
		c-1.1,1.8-1.7,3.9-1.7,6.1c0,1.7,0.3,3.1,1,4.3c0.8,1.4,1.9,2.2,3.4,2.5c0.4,0.1,0.8,0.1,1.2,0.1c2.1,0,3.8-1.1,5.1-3.2
		c1.1-1.8,1.7-3.9,1.7-6.1C95.8,257.8,95.4,256.4,94.7,255.3L94.7,255.3z M92,261.2c-0.3,1.4-0.8,2.5-1.6,3.2
		c-0.6,0.6-1.2,0.8-1.7,0.7c-0.5-0.1-0.9-0.6-1.3-1.4c-0.3-0.7-0.4-1.3-0.4-2c0-0.5,0-1.1,0.1-1.6c0.2-0.9,0.6-1.7,1.1-2.6
		c0.7-1.1,1.5-1.5,2.2-1.3c0.5,0.1,0.9,0.6,1.3,1.4c0.3,0.7,0.4,1.3,0.4,2C92.2,260.2,92.1,260.7,92,261.2L92,261.2z"/>
	<path class="st9" d="M81.3,255.3c-0.8-1.4-1.9-2.2-3.4-2.5c-0.4-0.1-0.8-0.1-1.2-0.1c-2.1,0-3.7,1.1-5.1,3.2
		c-1.1,1.8-1.7,3.9-1.7,6.1c0,1.7,0.3,3.1,1,4.3c0.8,1.4,1.9,2.2,3.4,2.5c0.4,0.1,0.8,0.1,1.2,0.1c2.1,0,3.8-1.1,5.1-3.2
		c1.1-1.8,1.7-3.9,1.7-6.1C82.3,257.8,81.9,256.4,81.3,255.3L81.3,255.3z M78.5,261.2c-0.3,1.4-0.8,2.5-1.6,3.2
		c-0.6,0.6-1.2,0.8-1.7,0.7c-0.5-0.1-0.9-0.6-1.3-1.4c-0.3-0.7-0.4-1.3-0.4-2c0-0.5,0-1.1,0.2-1.6c0.2-0.9,0.6-1.7,1.1-2.6
		c0.7-1.1,1.5-1.5,2.2-1.3c0.5,0.1,0.9,0.6,1.3,1.4c0.3,0.7,0.4,1.3,0.4,2C78.7,260.2,78.7,260.7,78.5,261.2L78.5,261.2z"/>
</g>
<path class="st4" d="M150.4,284.3c0,0,8.4,1.9,16.4,1.9c0,0,9.7,0.2,16.4-1.8l-5.6-29.4l11.2,5.6c0,0,0.9,0.8,1.7-0.1
	c0.4-0.5,3.8-5.4,5.2-7.8c0.7-1.1-0.1-1.2-0.1-1.2l-12.4-7.3c0,0-1.5-1.8-5.6-1.8h-3.5c0,0,0.1,7.3-7.4,7.3c0,0-7.4-0.5-7.3-7.3H156
	c0,0-4.2,0.3-5.7,1.8l-12.4,7.2c0,0-0.5,0.6,0.1,1.7l5.3,7.5c0,0,0.9,0.7,1.9-0.1l10.3-5.4L150.4,284.3z"/>
<g class="st6">
	<g class="st7">
		<path class="st8" d="M164.2,143.2h-62.5c-10.5,0-19.1-8.6-19.1-19.1V72.9c0-5,1.9-9.8,5.5-13.5c3.6-3.6,8.4-5.6,13.5-5.6h134.1
			c10.5,0,19.1,8.6,19.1,19.1v51.2c0,10.5-8.6,19.1-19.1,19.1h-42.5l8.5,20.9L164.2,143.2z"/>
	</g>
	<path class="st9" d="M94.5,71.5c0.9-1.3,2.4-2,4.2-2.1c3.4-0.3,5.4,1.3,5.9,4.9c2.1,14.1,4.4,26,6.8,35.8l14.7-28.1
		c1.3-2.6,3-3.9,5.1-4c3-0.2,4.8,1.7,5.5,5.7c1.7,9,3.8,16.6,6.4,23c1.7-17.1,4.7-29.4,8.9-37c1-1.9,2.5-2.8,4.4-3
		c1.5-0.1,3,0.3,4.2,1.3c1.3,1,2,2.3,2.1,3.8c0.1,1.2-0.1,2.2-0.7,3.2c-2.6,4.8-4.8,13-6.5,24.3c-1.7,11-2.3,19.5-1.9,25.7
		c0.1,1.7-0.1,3.2-0.8,4.4c-0.8,1.5-2,2.3-3.6,2.4c-1.8,0.1-3.6-0.7-5.3-2.5c-6.3-6.4-11.2-16-14.9-28.7c-4.4,8.6-7.6,15.1-9.7,19.4
		c-4,7.6-7.3,11.5-10.2,11.7c-1.8,0.1-3.4-1.4-4.7-4.6c-3.4-8.8-7.1-25.9-11.1-51.1C93.2,74.3,93.6,72.7,94.5,71.5z"/>
	<path class="st9" d="M239.3,82.1c-2.4-4.2-6-6.8-10.8-7.8c-1.3-0.3-2.5-0.4-3.6-0.4c-6.5,0-11.7,3.4-15.8,10.1
		c-3.5,5.7-5.3,12.1-5.3,19c0,5.2,1.1,9.6,3.2,13.3c2.4,4.2,6,6.8,10.8,7.8c1.3,0.3,2.5,0.4,3.6,0.4c6.5,0,11.8-3.4,15.8-10.1
		c3.5-5.8,5.3-12.1,5.3-19.1C242.6,90.1,241.5,85.7,239.3,82.1L239.3,82.1z M230.8,100.7c-0.9,4.4-2.6,7.7-5.1,10
		c-2,1.8-3.8,2.5-5.5,2.2c-1.6-0.3-3-1.8-4-4.4c-0.8-2.1-1.2-4.2-1.2-6.1c0-1.7,0.1-3.4,0.5-4.9c0.6-2.8,1.7-5.5,3.6-8
		c2.2-3.3,4.6-4.6,7-4.2c1.6,0.3,3,1.8,4,4.4c0.8,2.1,1.2,4.2,1.2,6.1C231.3,97.5,231.1,99.2,230.8,100.7L230.8,100.7z"/>
	<path class="st9" d="M197.1,82.1c-2.4-4.2-6.1-6.8-10.8-7.8c-1.3-0.3-2.5-0.4-3.6-0.4c-6.5,0-11.7,3.4-15.8,10.1
		c-3.5,5.7-5.3,12.1-5.3,19c0,5.2,1.1,9.6,3.2,13.3c2.4,4.2,6,6.8,10.8,7.8c1.3,0.3,2.5,0.4,3.6,0.4c6.5,0,11.8-3.4,15.8-10.1
		c3.5-5.8,5.3-12.1,5.3-19.1C200.3,90.1,199.2,85.7,197.1,82.1L197.1,82.1z M188.6,100.7c-0.9,4.4-2.6,7.7-5.1,10
		c-2,1.8-3.8,2.5-5.5,2.2c-1.6-0.3-3-1.8-4-4.4c-0.8-2.1-1.2-4.2-1.2-6.1c0-1.7,0.1-3.4,0.5-4.9c0.6-2.8,1.8-5.5,3.6-8
		c2.2-3.3,4.6-4.6,7-4.2c1.6,0.3,3,1.8,4,4.4c0.8,2.1,1.2,4.2,1.2,6.1C189.1,97.5,188.9,99.2,188.6,100.7L188.6,100.7z"/>
</g>
<path class="st4" d="M97.9,260.3c0,13.9-14.5,12.9-14.5,12.9c-9.4,0-13-10.3-13-10.3s-0.2-1.4-1.8-1.4c-1.6,0-2.1,1.5-2.1,1.5
	C65.3,274.6,52,273,52,273c-13.1,0-12.6-12.2-12.6-12.2c-2.4-1.1-2.3-5.5-2.3-5.5c0-3.8,5.3-4,5.3-4c5.4-0.4,17.2,0.9,21.6,4
	c1.9,1,3,2.1,4.8,2.1s4.9-2,4.9-2c3.2-4,21.3-4,23.3-4c2,0,3.1,0.4,3.1,3.7C100,258.3,97.9,260.3,97.9,260.3z M41.9,255.4h-2
	c-0.5,0-1,0.4-1,1c0,0.5,0.4,1,1,1h2c0.5,0,1-0.4,1-1C42.9,255.8,42.4,255.4,41.9,255.4z M97,255.4h-2c-0.5,0-1,0.4-1,1
	c0,0.5,0.4,1,1,1h2c0.5,0,1-0.4,1-1C98,255.8,97.6,255.4,97,255.4z"/>
<g>
	<path class="st0" d="M167.7,156.7c-0.9-0.2-1.1-0.7-1.3-1.5c-0.8-3.3,0.1-17.6,0-21.5c-0.1-17.9-0.3-35.9-0.4-53.8
		c0-5.8,0.3-11.6,0.4-17.3c0-0.6-0.2-1.1-0.1-1.7c0.1-0.5,0.2-1.2,0.5-1.5c0.3-0.2,1.2-0.1,1.5,0.2c1.7,1.6,3.3,3.2,4.9,4.9
		c1.2,1.2,2.2,2.6,3.3,3.9c6.2-7.9,13.9-14.3,20.7-21.5c1.8-1.9,3.7-2.5,6.1-2.6c0.8,0,1.7,0,2.5,0.1c3.5,0.8,5.4,3.2,6.3,6.5
		c0.8,2.8-0.1,12.6,0.1,14.7c0.7,10.9,0.2,21.9-0.2,32.8c-0.3,9.4-0.6,18.8-0.7,28.2c-0.1,7,0.2,13.9,0.3,20.9
		c0.1,5.4-3.6,9.4-8.7,9.6C199.3,157.2,169.2,157,167.7,156.7z M201,76.9c-8.3-1.2-16.5,0-24.9-0.6c0,0.7,0,1.1,0,1.6
		c-0.1,4.3-0.1,8.6-0.3,12.9c-0.1,2.6-0.4,10.4-0.1,11.6c0.2,0.9,0.8,1.3,1.9,1.3c7.2-0.2,14.4-0.2,21.6-0.3c0.7,0,1.1-0.4,1.1-1
		c0.2-2.1,0.4-4.2,0.3-6.3C200.7,92.4,200.8,79.7,201,76.9z"/>
	<path class="st0" d="M196.9,43.4c-0.5,0.7-0.8,1.3-1.2,1.9c-4.9,6-10.5,11.4-16.6,16.3c-0.2,0.1-0.3,0.3-0.5,0.4
		c-2.5,2-2,2.3-4.6-0.2c-1.5-1.4-2.8-2.9-4.2-4.4c-0.1-0.1-0.1-0.2-0.2-0.3c-1.4-1.4-1.6-1.5-0.4-3.3c1.1-1.6,2.4-3.1,3.7-4.5
		c4.1-4.4,8.3-8.8,12.5-13.2c1.5-1.5,1.9-1.6,3.6-0.4c2.2,1.5,4.3,3.1,6.3,4.9C196,41.3,196.3,42.4,196.9,43.4z"/>
	<path class="st0" d="M180.9,32.7c0.6,0.2,1.3,0.7,1.5,1.2c0.2,0.5-0.3,1.2-0.7,1.7c-0.3,0.4-7.3,8-10.4,11.4
		c-1.7,1.8-3.5,3.5-5.3,5.1c-0.3,0.3-1.1,0.2-1.5,0c-1.2-0.7-2.4-1.4-3.3-2.4c-4.7-4.8-9.2-9.6-13.9-14.4c-0.1-0.1-0.2-0.2-0.3-0.4
		c-0.6-0.8-0.4-1.3,0.6-1.3C151.7,33.5,180.3,32.5,180.9,32.7z"/>
	<path class="st0" d="M161.3,56.1c-0.1,0.5-0.1,0.9-0.3,1.2c-1.2,1.7-2.5,3.4-3.8,5.1c-0.4,0.5-1,0.8-1.6,1.1
		c-0.8,0.4-1.5,0.3-2.1-0.3c-0.3-0.3-0.7-0.7-1-1c-5.8-6.3-11.6-12.5-17.3-18.9c-0.3-0.3-0.3-1.2-0.1-1.5c1.7-2.1,3.5-4.2,5.3-6.2
		c0.5-0.6,1.2-0.5,1.7,0c1.6,1.4,3.3,2.8,4.8,4.3c3.9,4,7.8,8,11.6,12c0.8,0.8,1.5,1.6,2.1,2.5C160.9,55,161.1,55.6,161.3,56.1z"/>
	<path class="st0" d="M163.5,106c-0.2-14.8-0.3-29.5-0.5-44.3c0-0.6,0.1-1.2-0.1-1.7c-0.2-0.7-0.8-0.8-1.3-0.2
		c-1.7,2.1-3.4,4.3-5.1,6.5c-1.2,1.5-1.6,1.8-3.2,0.7c-1.9-1.3-3.8-2.8-5.4-4.6c-5-5.5-9.9-11.2-14.9-16.8c-0.7-0.8-1.5-1.5-2.7-1.8
		c-2.7-0.7-5.2-0.4-7.6,0.8c-3,1.5-4.7,4.3-4.4,6.9c0.1,1,0.1,1.9,0.1,2.9c-0.2,8.1-0.6,16.3-0.6,24.4c0,14.4,0.3,28.8,0.4,43.2
		c0.1,9.8,0.3,19.5,0.4,29.3c0,1.6,0.6,3,1.9,3.8c1.4,0.8,39.7,0.7,40.1,0.8c1.8,0.4,2.5-0.1,2.6-2C163.5,149.1,163.3,106,163.5,106
		z M151.8,82.8c-0.3-1,0.5-2.2,2-3.1c1.6,0.9,2.2,1.8,1.8,3c-0.3,0.9-0.9,1.6-1.9,1.6C152.8,84.3,152.1,83.7,151.8,82.8z M155.1,143
		c-1.1,0-2-0.9-2-2c0-1,0.8-1.9,1.5-1.8c1.1,0.1,2,1.2,1.9,2.4C156.5,142.3,156.1,143,155.1,143z M155.1,113.2
		c-1.3,0-2.2-0.8-2.1-2.1c0-1.1,0.9-2.3,1.8-2.3c0.8,0,2.3,1.7,2.3,2.7C157,112.5,156.3,113.2,155.1,113.2z"/>
	<rect x="177.9" y="78.8" class="st0" width="20.4" height="23.2"/>
</g>
<path class="st0" d="M236.8,261.1c1.8-0.1,3.7,0,5.5,0.4c4.8,1.2,7.7,4.4,9.5,8.9c-3.6,0.7-7.3,1.2-11,0.6c-0.1,0.5-0.1,1-0.1,1.5
	c0.3,0,0.4,0,0.6,0c13.3,0,26.6,0,39.9,0c1.8,0,3.4-0.5,4.6-1.8c0.2-0.2,0.3-0.4,0.5-0.6c-1.1,0.3-2.1,0.7-3.1,0.8
	c-1.7,0.2-3.4,0.3-5,0.2c-4.4-0.3-8.8-0.7-13.1-1.1c-3.3-0.3-6.5-0.6-9.8-0.1c-0.4,0-0.5-0.1-0.6-0.4c-1.4-3.8-3.6-7-7.2-9.1
	c-3-1.8-6.3-2.4-9.7-2.3c-0.2,0-0.3,0-0.5,0c0,0,0,0-0.1-0.1c0.1-0.6,0.2-1.3,0.3-2c0.6-2.8,1.7-5.4,3.4-7.8
	c0.9-1.3,2.4-0.9,2.9,0.3c1,2.3,3,3.5,5.4,4c1.3,0.3,2.6,0.2,3.9,0.3c0.3,0,0.4-0.1,0.5-0.4c0.4-1.9,0.9-3.9,1.4-5.8
	c0.2-0.7,0.5-1.4,0.9-2c0.8-1.3,2.1-1.6,3.3-0.7c1,0.8,1.9,1.9,2.8,2.9c0.7,0.8,1.1,1.8,1.9,2.6c0.7,0.7,1.7,1.2,2.6,1.8
	c0.8,0.5,1.5,1.1,2.3,1.7c-1.1,1.2-2.1,2.4-3.2,3.5c-0.2,0.3-0.5,0.5-0.7,0.8c-0.6,0.7-0.6,1.6,0.1,2.2c0.6,0.5,1.5,0.5,2.1-0.2
	c1.3-1.4,2.6-2.9,3.9-4.3c0.1-0.1,0.2-0.2,0.3-0.3c0.7,0.4,1.4,0.8,2.2,1.2c-0.1,0.2-0.2,0.3-0.3,0.5c-0.8,1.5-1.7,2.9-2.5,4.4
	c-0.5,0.8-0.2,1.7,0.5,2.1c0.7,0.4,1.6,0.1,2-0.7c0.1-0.2,0.2-0.3,0.3-0.5c0.8-1.4,1.6-2.7,2.3-4.1c0.1-0.2,0.2-0.3,0.3-0.5
	c1,0.4,2,0.8,3,1.1c2.8,1,5.8,1.6,8.7,2.3c0.6,0.1,1.1,0.3,1.6,0.6c1.2,0.5,1.9,1.5,2.2,2.7c0,0.4,0,0.8,0,1.2
	c-0.2,0.7-0.5,1.4-0.6,2.2c-0.4,2.1-1.1,4-2.6,5.6c-1.9,2-4.3,2.9-7,2.9c-13.9,0-27.8,0-41.8,0c-0.1,0-0.2,0-0.3,0
	c-1,0-1.6-0.7-1.5-1.6c0-0.6,0.1-1.3,0.2-1.9c0.2-1.3,0.3-2.6-0.2-3.9c-0.2-0.5-0.2-1-0.3-1.5c-0.2-1-0.3-2.1-0.4-3.1
	C236.8,262.6,236.8,261.9,236.8,261.1z M258,246.8c-0.1,0-0.2,0-0.3,0c-0.5,1.9-0.9,3.7-1.4,5.7c1.7-0.4,3.2-1,4.4-2.3
	C259.7,249.1,258.8,247.9,258,246.8z"/>
</svg>
